<svg width="1783" height="1337" xmlns="http://www.w3.org/2000/svg" xmlns:xlink="http://www.w3.org/1999/xlink" overflow="hidden"><defs><clipPath id="clip0"><rect x="0" y="0" width="1783" height="1337"/></clipPath><clipPath id="clip1"><rect x="528" y="366" width="253" height="34"/></clipPath><clipPath id="clip2"><rect x="528" y="366" width="253" height="34"/></clipPath><clipPath id="clip3"><rect x="528" y="366" width="253" height="34"/></clipPath><clipPath id="clip4"><path d="M1171.28 621.337 1118.55 645.132 1094.6 592.083 1147.34 568.288Z" fill-rule="evenodd" clip-rule="evenodd"/></clipPath><clipPath id="clip5"><path d="M1171.28 621.337 1118.55 645.132 1094.6 592.083 1147.34 568.288Z" fill-rule="evenodd" clip-rule="evenodd"/></clipPath><clipPath id="clip6"><path d="M1171.28 621.337 1118.55 645.132 1094.6 592.083 1147.34 568.288Z" fill-rule="evenodd" clip-rule="evenodd"/></clipPath><clipPath id="clip7"><path d="M1194.63 429.157 1119.32 395.175 1085.12 470.932 1160.43 504.914Z" fill-rule="evenodd" clip-rule="evenodd"/></clipPath><clipPath id="clip8"><path d="M1194.63 429.157 1119.32 395.175 1085.12 470.932 1160.43 504.914Z" fill-rule="evenodd" clip-rule="evenodd"/></clipPath><clipPath id="clip9"><path d="M1194.63 429.157 1119.32 395.175 1085.12 470.932 1160.43 504.914Z" fill-rule="evenodd" clip-rule="evenodd"/></clipPath><clipPath id="clip10"><rect x="511" y="953" width="284" height="33"/></clipPath><clipPath id="clip11"><rect x="511" y="953" width="284" height="33"/></clipPath><clipPath id="clip12"><rect x="511" y="953" width="284" height="33"/></clipPath><clipPath id="clip13"><path d="M1095.12 787.245 1042.38 811.04 1018.44 757.992 1071.17 734.196Z" fill-rule="evenodd" clip-rule="evenodd"/></clipPath><clipPath id="clip14"><path d="M1095.12 787.245 1042.38 811.04 1018.44 757.992 1071.17 734.196Z" fill-rule="evenodd" clip-rule="evenodd"/></clipPath><clipPath id="clip15"><path d="M1095.12 787.245 1042.38 811.04 1018.44 757.992 1071.17 734.196Z" fill-rule="evenodd" clip-rule="evenodd"/></clipPath><clipPath id="clip16"><path d="M1279.56 1179.08 1226.83 1202.87 1202.88 1149.82 1255.62 1126.03Z" fill-rule="evenodd" clip-rule="evenodd"/></clipPath><clipPath id="clip17"><path d="M1279.56 1179.08 1226.83 1202.87 1202.88 1149.82 1255.62 1126.03Z" fill-rule="evenodd" clip-rule="evenodd"/></clipPath><clipPath id="clip18"><path d="M1279.56 1179.08 1226.83 1202.87 1202.88 1149.82 1255.62 1126.03Z" fill-rule="evenodd" clip-rule="evenodd"/></clipPath></defs><g clip-path="url(#clip0)"><rect x="0" y="0" width="1783" height="1336.75" fill="#FFFFFF"/><rect x="714.5" y="149.472" width="34.0001" height="41.9921" stroke="#000000" stroke-width="1.33358" stroke-miterlimit="8" fill="#548235"/><rect x="747.5" y="149.472" width="34.0001" height="41.9921" stroke="#000000" stroke-width="1.33358" stroke-miterlimit="8" fill="#548235"/><rect x="781.5" y="149.472" width="33" height="41.9921" stroke="#000000" stroke-width="1.33358" stroke-miterlimit="8" fill="#548235"/><rect x="714.5" y="191.464" width="34.0001" height="41.9922" stroke="#000000" stroke-width="1.33358" stroke-miterlimit="8" fill="#548235"/><rect x="747.5" y="191.464" width="34.0001" height="41.9922" stroke="#000000" stroke-width="1.33358" stroke-miterlimit="8" fill="#548235"/><rect x="780.5" y="191.464" width="33.9999" height="41.9922" stroke="#000000" stroke-width="1.33358" stroke-miterlimit="8" fill="#548235"/><rect x="714.5" y="233.456" width="34.0001" height="41.9921" stroke="#000000" stroke-width="1.33358" stroke-miterlimit="8" fill="#548235"/><rect x="747.5" y="233.456" width="34.0001" height="41.9921" stroke="#000000" stroke-width="1.33358" stroke-miterlimit="8" fill="#548235"/><rect x="780.5" y="233.456" width="33.9999" height="41.9921" stroke="#000000" stroke-width="1.33358" stroke-miterlimit="8" fill="#548235"/><rect x="714.5" y="107.48" width="34.0001" height="41.9921" stroke="#000000" stroke-width="1.33358" stroke-miterlimit="8" fill="#548235"/><rect x="747.5" y="107.48" width="34.0001" height="41.9921" stroke="#000000" stroke-width="1.33358" stroke-miterlimit="8" fill="#548235"/><rect x="781.5" y="107.48" width="33" height="41.9921" stroke="#000000" stroke-width="1.33358" stroke-miterlimit="8" fill="#548235"/><text font-family="Consolas,Consolas_MSFontService,sans-serif" font-weight="700" font-size="21" transform="matrix(1 0 0 0.999813 758.339 86)">K</text><path d="M703.833 114.147 703.833 272.656 703.167 272.656 703.167 114.147ZM699.499 115.48 703.5 107.48 707.501 115.48ZM707.501 271.323 703.5 279.323 699.499 271.323Z"/><text font-family="Calibri,Calibri_MSFontService,sans-serif" font-weight="400" font-size="24" transform="matrix(1 0 0 0.999813 669.581 198)">N<tspan font-size="16" x="15.5029" y="5.00093">X</tspan></text><path d="M710.168 304.11 811.458 304.11 811.458 304.776 710.168 304.776ZM711.501 308.443 703.5 304.443 711.502 300.443ZM810.124 300.443 818.126 304.443 810.124 308.443Z"/><text font-family="Calibri,Calibri_MSFontService,sans-serif" font-weight="400" font-size="24" transform="matrix(1 0 0 0.999813 748.593 332)">D<tspan font-size="16" x="14.8361" y="5.00093">Q</tspan></text><rect x="996.5" y="149.472" width="34" height="41.9921" stroke="#000000" stroke-width="1.33358" stroke-miterlimit="8" fill="#8FAADC"/><rect x="1029.5" y="149.472" width="34" height="41.9921" stroke="#000000" stroke-width="1.33358" stroke-miterlimit="8" fill="#8FAADC"/><rect x="1062.5" y="149.472" width="34" height="41.9921" stroke="#000000" stroke-width="1.33358" stroke-miterlimit="8" fill="#8FAADC"/><rect x="996.5" y="191.464" width="34" height="42.992" stroke="#000000" stroke-width="1.33358" stroke-miterlimit="8" fill="#8FAADC"/><rect x="1029.5" y="191.464" width="34" height="42.992" stroke="#000000" stroke-width="1.33358" stroke-miterlimit="8" fill="#8FAADC"/><rect x="1062.5" y="191.464" width="34" height="42.992" stroke="#000000" stroke-width="1.33358" stroke-miterlimit="8" fill="#8FAADC"/><rect x="996.5" y="234.456" width="34" height="41.9921" stroke="#000000" stroke-width="1.33358" stroke-miterlimit="8" fill="#8FAADC"/><rect x="1029.5" y="234.456" width="34" height="41.9921" stroke="#000000" stroke-width="1.33358" stroke-miterlimit="8" fill="#8FAADC"/><rect x="1062.5" y="234.456" width="34" height="41.9921" stroke="#000000" stroke-width="1.33358" stroke-miterlimit="8" fill="#8FAADC"/><rect x="996.5" y="107.48" width="34" height="41.9921" stroke="#000000" stroke-width="1.33358" stroke-miterlimit="8" fill="#8FAADC"/><rect x="1029.5" y="107.48" width="34" height="41.9921" stroke="#000000" stroke-width="1.33358" stroke-miterlimit="8" fill="#8FAADC"/><rect x="1062.5" y="107.48" width="34" height="41.9921" stroke="#000000" stroke-width="1.33358" stroke-miterlimit="8" fill="#8FAADC"/><text font-family="Consolas,Consolas_MSFontService,sans-serif" font-weight="700" font-size="21" transform="matrix(1 0 0 0.999813 1056.47 86)">V</text><path d="M985.881 114.144 987.041 276.182 986.374 276.186 985.214 114.149ZM981.557 115.508 985.5 107.48 989.558 115.451ZM990.699 274.822 986.755 282.85 982.697 274.879Z"/><text font-family="Calibri,Calibri_MSFontService,sans-serif" font-weight="400" font-size="24" transform="matrix(1 0 0 0.999813 951.429 198)">N<tspan font-size="16" x="15.5029" y="5.00093">X</tspan></text><path d="M998.168 300.11 1120.89 300.111 1120.89 300.777 998.168 300.777ZM999.501 304.444 991.5 300.444 999.502 296.444ZM1119.56 296.444 1127.56 300.444 1119.56 304.444Z"/><text font-family="Calibri,Calibri_MSFontService,sans-serif" font-weight="400" font-size="24" transform="matrix(1 0 0 0.999813 1053.17 326)">D<tspan font-size="16" x="14.556" y="5.00093">V</tspan></text><rect x="1094.5" y="149.472" width="34" height="41.9921" stroke="#000000" stroke-width="1.33358" stroke-miterlimit="8" fill="#8FAADC"/><rect x="1094.5" y="234.456" width="34" height="41.9921" stroke="#000000" stroke-width="1.33358" stroke-miterlimit="8" fill="#8FAADC"/><rect x="1094.5" y="107.48" width="34" height="41.9921" stroke="#000000" stroke-width="1.33358" stroke-miterlimit="8" fill="#8FAADC"/><rect x="1094.5" y="191.464" width="34" height="42.992" stroke="#000000" stroke-width="1.33358" stroke-miterlimit="8" fill="#8FAADC"/><rect x="479.5" y="122.477" width="34" height="45.9914" stroke="#000000" stroke-width="1.33358" stroke-miterlimit="8" fill="#CC99FF"/><rect x="513.5" y="122.477" width="33" height="45.9914" stroke="#000000" stroke-width="1.33358" stroke-miterlimit="8" fill="#CC99FF"/><rect x="546.5" y="122.477" width="34.0001" height="45.9914" stroke="#000000" stroke-width="1.33358" stroke-miterlimit="8" fill="#CC99FF"/><rect x="479.5" y="168.468" width="34" height="45.9915" stroke="#000000" stroke-width="1.33358" stroke-miterlimit="8" fill="#CC99FF"/><rect x="513.5" y="168.468" width="33" height="45.9915" stroke="#000000" stroke-width="1.33358" stroke-miterlimit="8" fill="#CC99FF"/><rect x="546.5" y="168.468" width="34.0001" height="45.9915" stroke="#000000" stroke-width="1.33358" stroke-miterlimit="8" fill="#CC99FF"/><text font-family="Consolas,Consolas_MSFontService,sans-serif" font-weight="700" font-size="21" transform="matrix(1 0 0 0.999813 523.152 100)">Q</text><path d="M452.833 131.143 452.834 209.713 452.167 209.713 452.167 131.143ZM448.499 132.477 452.5 124.477 456.501 132.477ZM456.501 208.379 452.5 216.379 448.499 208.379Z"/><text font-family="Calibri,Calibri_MSFontService,sans-serif" font-weight="400" font-size="24" transform="matrix(1 0 0 0.999813 415.451 172)">N<tspan font-size="16" x="15.5029" y="5.00093">Q</tspan></text><path d="M497.168 236.122 571.289 236.123 571.289 236.789 497.168 236.789ZM498.501 240.456 490.5 236.456 498.501 232.456ZM569.955 232.456 577.957 236.456 569.955 240.456Z"/><text font-family="Calibri,Calibri_MSFontService,sans-serif" font-weight="400" font-size="24" transform="matrix(1 0 0 0.999813 514.377 257)">D<tspan font-size="16" x="14.8361" y="5.00093">Q</tspan></text><g clip-path="url(#clip1)"><g clip-path="url(#clip2)"><g clip-path="url(#clip3)"><path d="M6.17773-8.07255 13.0044-8.07255C13.809-8.07255 14.2503-8.25428 14.2503-9.29254 14.2503-10.2529 13.9128-10.5125 13.0044-10.5125L6.17773-10.5125 6.17773-15.3145 7.4496-15.3145C9.47423-15.3145 11.5248-15.2367 13.5495-15.2367 14.4579-15.2367 15.0549-15.2367 15.0549-16.4826L15.0549-16.6902C15.0549-17.5209 14.8732-17.9362 13.809-17.9362L3.60801-17.9362C2.67355-17.9362 2.36207-17.6506 2.36207-16.6902L2.36207-1.24593C2.36207-0.311481 2.64759 0 3.60801 0L14.1984 0C15.1847 0 15.4443-0.337437 15.4443-1.24593L15.4443-1.60932C15.4443-2.85525 14.8473-2.85525 13.9907-2.85525 12.6409-2.85525 11.3172-2.80333 9.9674-2.80333 9.31849-2.80333 6.64495-2.77738 6.17773-2.75142L6.17773-8.07255Z" transform="matrix(1 0 0 1.04329 528 390.74)"/><path d="M17.5208-8.48787C17.8842-8.48787 18.3515-8.48787 18.3515-8.95509 18.3515-9.44827 17.9102-9.44827 17.5208-9.44827L2.23228-9.44827C1.86889-9.44827 1.40167-9.44827 1.40167-8.98106 1.40167-8.48787 1.84293-8.48787 2.23228-8.48787L17.5208-8.48787ZM17.5208-3.50417C17.8842-3.50417 18.3515-3.50417 18.3515-3.97139 18.3515-4.46457 17.9102-4.46457 17.5208-4.46457L2.23228-4.46457C1.86889-4.46457 1.40167-4.46457 1.40167-3.99736 1.40167-3.50417 1.84293-3.50417 2.23228-3.50417L17.5208-3.50417Z" transform="matrix(1 0 0 1.04329 551.866 390.74)"/><path d="M16.6643 2.75142C17.0017 2.75142 17.5987 2.75142 17.5987 2.18037 17.5987 1.97272 17.5468 1.9208 17.2093 1.45358L15.5222-0.72679C18.8187-2.72547 19.0004-7.00834 19.0004-8.87723 19.0004-14.0945 17.1055-18.5851 10.3048-18.5851 3.11482-18.5851 1.58337-13.6273 1.58337-8.87723 1.58337-4.02331 3.27054 0.571048 10.2789 0.571048 10.7202 0.571048 11.3172 0.571048 12.1478 0.441266 12.4593 0.908488 12.7707 1.37571 13.1082 1.84293 13.6533 2.67355 13.7312 2.75142 14.5877 2.75142L16.6643 2.75142ZM9.91549-5.03561C9.5521-5.03561 8.98106-5.03561 8.98106-4.43862 8.98106-4.1531 9.81167-2.98503 10.2789-2.33611 10.3567-2.20633 10.798-1.58337 10.798-1.5055 10.798-1.45358 10.3827-1.45358 10.2789-1.45358 5.32114-1.45358 5.32114-6.59303 5.32114-8.90319 5.32114-11.1874 5.32114-16.5604 10.2789-16.5604 15.2626-16.5604 15.2626-11.2133 15.2626-8.90319 15.2626-7.2679 15.2626-4.5684 13.809-2.90716L12.3814-4.75009C12.1218-5.03561 12.018-5.03561 11.4989-5.03561L9.91549-5.03561Z" transform="matrix(1 0 0 1.04329 578.844 390.74)"/><path d="M13.7917-12.0093 12.3381-12.0093 10.0539-1.36705 10.0366-1.36705 6.64492-12.0093 4.29151-12.0093 1.73045 0 3.18401 0 5.45092-10.6423 5.46823-10.6423 8.8772 0 11.2306 0 13.7917-12.0093Z" transform="matrix(1 0 0 1.04329 599.465 394.802)"/><path d="M7.13812 1.66124 8.66958 1.66124 7.46258-0.428287C9.51317-1.71315 10.4736-3.77672 10.4736-5.56773 10.4736-7.87788 8.94213-9.27955 7.06026-9.27955 4.25692-9.27955 1.59634-6.34644 1.59634-3.38736 1.59634-1.23295 3.03694 0.272546 5.03561 0.272546 5.47688 0.272546 5.90517 0.207654 6.32047 0.0778715L7.13812 1.66124ZM6.2556-2.51781 4.9837-2.51781 5.91816-0.713812C5.68454-0.64892 5.45094-0.622963 5.21732-0.622963 3.94544-0.622963 2.86824-1.59634 2.86824-3.40035 2.86824-5.90517 4.77605-8.38405 6.86557-8.38405 8.28022-8.38405 9.21466-7.216 9.21466-5.56773 9.21466-4.37373 8.68254-2.34909 7.00835-1.21997L6.2556-2.51781Z" transform="matrix(1 0 0 1.04329 612.444 397.986)"/><path d="M11.3345-7.96008C11.5421-8.16774 11.5767-8.25426 11.5767-8.37539 11.5767-8.58306 11.4037-8.77341 11.1787-8.77341 11.023-8.77341 10.9538-8.70419 10.7634-8.51382L7.14678-4.89718 3.51281-8.53115C3.30516-8.7388 3.21864-8.77341 3.09751-8.77341 2.88986-8.77341 2.69951-8.60036 2.69951-8.37539 2.69951-8.21965 2.76873-8.15043 2.94177-7.97739L6.57572-4.32614 2.95908-0.709487C2.73412-0.484527 2.69951-0.398005 2.69951-0.276873 2.69951-0.0519129 2.88986 0.121132 3.09751 0.121132 3.25325 0.121132 3.30516 0.0692172 3.49551-0.121132L7.12948-3.75507 10.9019 0.0173043C10.9884 0.0692172 11.0922 0.121132 11.1787 0.121132 11.4037 0.121132 11.5767-0.0692172 11.5767-0.276873 11.5767-0.41531 11.4902-0.484527 11.4902-0.501831 11.421-0.605659 8.65228-3.35708 7.70052-4.32614L11.3345-7.96008Z" transform="matrix(1 0 0 1.04329 624.667 394.802)"/><path d="M4.25692-12.0093 1.69584 0 6.61032 0C10.1404 0 13.636-3.39169 13.636-7.28518 13.636-10.0366 11.8017-12.0093 9.15407-12.0093L4.25692-12.0093ZM5.72779-10.9884 8.47921-10.9884C10.5558-10.9884 11.9574-9.56937 11.9574-7.28518 11.9574-4.04924 9.55209-1.02096 6.36805-1.02096L3.61665-1.02096 5.72779-10.9884Z" transform="matrix(1 0 0 1.04329 638.968 394.802)"/><path d="M7.13812 1.66124 8.66958 1.66124 7.46258-0.428287C9.51317-1.71315 10.4736-3.77672 10.4736-5.56773 10.4736-7.87788 8.94213-9.27955 7.06026-9.27955 4.25692-9.27955 1.59634-6.34644 1.59634-3.38736 1.59634-1.23295 3.03694 0.272546 5.03561 0.272546 5.47688 0.272546 5.90517 0.207654 6.32047 0.0778715L7.13812 1.66124ZM6.2556-2.51781 4.9837-2.51781 5.91816-0.713812C5.68454-0.64892 5.45094-0.622963 5.21732-0.622963 3.94544-0.622963 2.86824-1.59634 2.86824-3.40035 2.86824-5.90517 4.77605-8.38405 6.86557-8.38405 8.28022-8.38405 9.21466-7.216 9.21466-5.56773 9.21466-4.37373 8.68254-2.34909 7.00835-1.21997L6.2556-2.51781Z" transform="matrix(1 0 0 1.04329 652.247 397.986)"/><path d="M4.9837-6.4892C4.9837-7.24194 4.36075-7.86492 3.608-7.86492 2.85525-7.86492 2.23228-7.24194 2.23228-6.4892 2.23228-5.73645 2.85525-5.11349 3.608-5.11349 4.36075-5.11349 4.9837-5.73645 4.9837-6.4892Z" transform="matrix(1 0 0 1.04329 671.321 390.74)"/><path d="M10.9278-10.5125 17.7545-16.9238C18.0659-17.2093 18.0659-17.3651 18.0659-17.4689 18.0659-18.014 17.5468-18.014 17.1834-18.014L15.6-18.014C15.1588-18.014 14.6396-18.014 14.0945-17.4949L5.73644-9.60401 5.73644-16.7681C5.73644-17.5987 5.55474-18.014 4.49053-18.014L3.60801-18.014C2.67355-18.014 2.36207-17.7285 2.36207-16.7681L2.36207-1.24593C2.36207-0.311481 2.64759 0 3.60801 0L4.49053 0C5.47687 0 5.73644-0.337437 5.73644-1.24593L5.73644-5.60666 8.61767-8.33215 14.432-0.545092C14.8473 0 15.2367 0 15.7298 0L17.2872 0C17.8323 0 18.1957 0 18.1957-0.752747L10.9278-10.5125Z" transform="matrix(1 0 0 1.04329 684.298 390.74)"/><path d="M5.07022-10.1578 5.07022-0.830617C5.07022-0.207654 5.26057 0 5.90085 0L6.78337 0C7.44095 0 7.614-0.224958 7.614-0.830617L7.614-10.1578C8.37539-10.1578 10.3135-10.1058 11.0749-10.1058 11.5594-10.1058 11.9747-10.1058 11.9747-10.9365L11.9747-11.0749C11.9747-11.6287 11.8536-11.9055 11.1441-11.9055L1.5228-11.9055C0.899836-11.9055 0.69218-11.7152 0.69218-11.0749L0.69218-10.9365C0.69218-10.1058 1.10749-10.1058 1.59202-10.1058L5.07022-10.1578Z" transform="matrix(1 0 0 1.04329 704.128 379.558)"/><path d="M4.25692-12.0093 1.69584 0 6.61032 0C10.1404 0 13.636-3.39169 13.636-7.28518 13.636-10.0366 11.8017-12.0093 9.15407-12.0093L4.25692-12.0093ZM5.72779-10.9884 8.47921-10.9884C10.5558-10.9884 11.9574-9.56937 11.9574-7.28518 11.9574-4.04924 9.55209-1.02096 6.36805-1.02096L3.61665-1.02096 5.72779-10.9884Z" transform="matrix(1 0 0 1.04329 717.899 394.802)"/><path d="M7.13812 1.66124 8.66958 1.66124 7.46258-0.428287C9.51317-1.71315 10.4736-3.77672 10.4736-5.56773 10.4736-7.87788 8.94213-9.27955 7.06026-9.27955 4.25692-9.27955 1.59634-6.34644 1.59634-3.38736 1.59634-1.23295 3.03694 0.272546 5.03561 0.272546 5.47688 0.272546 5.90517 0.207654 6.32047 0.0778715L7.13812 1.66124ZM6.2556-2.51781 4.9837-2.51781 5.91816-0.713812C5.68454-0.64892 5.45094-0.622963 5.21732-0.622963 3.94544-0.622963 2.86824-1.59634 2.86824-3.40035 2.86824-5.90517 4.77605-8.38405 6.86557-8.38405 8.28022-8.38405 9.21466-7.216 9.21466-5.56773 9.21466-4.37373 8.68254-2.34909 7.00835-1.21997L6.2556-2.51781Z" transform="matrix(1 0 0 1.04329 731.178 397.986)"/><path d="M11.3345-7.96008C11.5421-8.16774 11.5767-8.25426 11.5767-8.37539 11.5767-8.58306 11.4037-8.77341 11.1787-8.77341 11.023-8.77341 10.9538-8.70419 10.7634-8.51382L7.14678-4.89718 3.51281-8.53115C3.30516-8.7388 3.21864-8.77341 3.09751-8.77341 2.88986-8.77341 2.69951-8.60036 2.69951-8.37539 2.69951-8.21965 2.76873-8.15043 2.94177-7.97739L6.57572-4.32614 2.95908-0.709487C2.73412-0.484527 2.69951-0.398005 2.69951-0.276873 2.69951-0.0519129 2.88986 0.121132 3.09751 0.121132 3.25325 0.121132 3.30516 0.0692172 3.49551-0.121132L7.12948-3.75507 10.9019 0.0173043C10.9884 0.0692172 11.0922 0.121132 11.1787 0.121132 11.4037 0.121132 11.5767-0.0692172 11.5767-0.276873 11.5767-0.41531 11.4902-0.484527 11.4902-0.501831 11.421-0.605659 8.65228-3.35708 7.70052-4.32614L11.3345-7.96008Z" transform="matrix(1 0 0 1.04329 743.402 394.802)"/><path d="M13.7917-12.0093 12.3381-12.0093 10.0539-1.36705 10.0366-1.36705 6.64492-12.0093 4.29151-12.0093 1.73045 0 3.18401 0 5.45092-10.6423 5.46823-10.6423 8.8772 0 11.2306 0 13.7917-12.0093Z" transform="matrix(1 0 0 1.04329 757.704 394.802)"/><path d="M6.13879-4.7501 10.3178-9.007 8.90318-9.007 5.69752-5.68454 3.8416-9.007 2.29717-9.007 4.86689-4.7501 0.194677 0 1.60932 0 5.32115-3.90649 7.43663 0 8.98106 0 6.13879-4.7501Z" transform="matrix(1 0 0 1.04329 770.681 397.986)"/></g></g></g><rect x="560.5" y="470.412" width="34.0001" height="34.9934" stroke="#000000" stroke-width="1.33358" stroke-miterlimit="8" fill="#CC99FF"/><rect x="594.5" y="470.412" width="33" height="34.9934" stroke="#000000" stroke-width="1.33358" stroke-miterlimit="8" fill="#CC99FF"/><rect x="627.5" y="470.412" width="34.0001" height="34.9934" stroke="#000000" stroke-width="1.33358" stroke-miterlimit="8" fill="#CC99FF"/><rect x="560.5" y="505.405" width="34.0001" height="34.9935" stroke="#000000" stroke-width="1.33358" stroke-miterlimit="8" fill="#CC99FF"/><rect x="594.5" y="505.405" width="33" height="34.9935" stroke="#000000" stroke-width="1.33358" stroke-miterlimit="8" fill="#CC99FF"/><rect x="627.5" y="505.405" width="34.0001" height="34.9935" stroke="#000000" stroke-width="1.33358" stroke-miterlimit="8" fill="#CC99FF"/><text font-family="Consolas,Consolas_MSFontService,sans-serif" font-weight="700" font-size="21" transform="matrix(1 0 0 0.999813 604.255 459)">Q</text><path d="M533.833 479.078 533.833 536.145 533.167 536.145 533.167 479.078ZM529.499 480.412 533.5 472.412 537.501 480.412ZM537.501 534.812 533.5 542.812 529.499 534.812Z"/><text font-family="Calibri,Calibri_MSFontService,sans-serif" font-weight="400" font-size="24" transform="matrix(1 0 0 0.999813 496.554 514)">N<tspan font-size="16" x="15.5029" y="5.00093">Q</tspan></text><path d="M578.168 557.062 652.289 557.063 652.289 557.729 578.168 557.729ZM579.501 561.396 571.5 557.396 579.502 553.396ZM650.955 553.396 658.957 557.396 650.955 561.396Z"/><text font-family="Calibri,Calibri_MSFontService,sans-serif" font-weight="400" font-size="24" transform="matrix(1 0 0 0.999813 595.48 580)">D<tspan font-size="16" x="14.8361" y="5.00093">Q</tspan></text><rect x="750.5" y="451.416" width="34.0001" height="34.9934" stroke="#000000" stroke-width="1.33358" stroke-miterlimit="8" fill="#548235"/><rect x="784.5" y="451.416" width="33" height="34.9934" stroke="#000000" stroke-width="1.33358" stroke-miterlimit="8" fill="#548235"/><rect x="817.5" y="451.416" width="33.9999" height="34.9934" stroke="#000000" stroke-width="1.33358" stroke-miterlimit="8" fill="#548235"/><rect x="851.5" y="451.416" width="34.0001" height="34.9934" stroke="#000000" stroke-width="1.33358" stroke-miterlimit="8" fill="#548235"/><rect x="750.5" y="487.409" width="34.0001" height="34.9935" stroke="#000000" stroke-width="1.33358" stroke-miterlimit="8" fill="#548235"/><rect x="784.5" y="487.409" width="33" height="34.9935" stroke="#000000" stroke-width="1.33358" stroke-miterlimit="8" fill="#548235"/><rect x="817.5" y="487.409" width="33.9999" height="34.9935" stroke="#000000" stroke-width="1.33358" stroke-miterlimit="8" fill="#548235"/><rect x="851.5" y="487.409" width="34.0001" height="34.9935" stroke="#000000" stroke-width="1.33358" stroke-miterlimit="8" fill="#548235"/><rect x="750.5" y="522.402" width="34.0001" height="34.9935" stroke="#000000" stroke-width="1.33358" stroke-miterlimit="8" fill="#548235"/><rect x="784.5" y="522.402" width="33" height="34.9935" stroke="#000000" stroke-width="1.33358" stroke-miterlimit="8" fill="#548235"/><rect x="817.5" y="522.402" width="33.9999" height="34.9935" stroke="#000000" stroke-width="1.33358" stroke-miterlimit="8" fill="#548235"/><rect x="851.5" y="522.402" width="34.0001" height="34.9935" stroke="#000000" stroke-width="1.33358" stroke-miterlimit="8" fill="#548235"/><text font-family="Consolas,Consolas_MSFontService,sans-serif" font-weight="700" font-size="21" transform="matrix(1 0 0 0.999813 807.734 444)">K<tspan font-size="14" x="11.6688" y="-6.00112">T</tspan></text><path d="M738.833 458.082 738.833 554.42 738.167 554.42 738.167 458.082ZM734.499 459.416 738.5 451.416 742.501 459.416ZM742.501 553.086 738.5 561.086 734.499 553.086Z"/><path d="M755.168 569.06 878.954 569.06 878.954 569.727 755.168 569.727ZM756.502 573.393 748.5 569.393 756.502 565.393ZM877.62 565.394 885.622 569.394 877.62 573.394Z"/><text font-family="Calibri,Calibri_MSFontService,sans-serif" font-weight="400" font-size="24" transform="matrix(1 0 0 0.999813 803.914 596)">N<tspan font-size="16" x="15.5029" y="5.00093">X</tspan><tspan font-size="24" x="-100.368" y="-86.0161">D</tspan><tspan font-size="16" x="-85.5317" y="-81.0151">Q</tspan><tspan font-family="Consolas,Consolas_MSFontService,sans-serif" font-weight="700" font-size="24" x="-418.801" y="-82.0153">E =</tspan><tspan font-family="Consolas,Consolas_MSFontService,sans-serif" font-weight="700" font-size="32" x="-124.779" y="-88.0164">.</tspan></text><rect x="1035.5" y="465.413" width="33" height="34.9934" stroke="#000000" stroke-width="1.33358" stroke-miterlimit="8" fill="#FF7C80"/><rect x="1035.5" y="500.406" width="33" height="35.9933" stroke="#000000" stroke-width="1.33358" stroke-miterlimit="8" fill="#FF7C80"/><rect x="1068.5" y="465.413" width="34" height="34.9934" stroke="#000000" stroke-width="1.33358" stroke-miterlimit="8" fill="#FF7C80"/><rect x="1068.5" y="500.406" width="34" height="35.9933" stroke="#000000" stroke-width="1.33358" stroke-miterlimit="8" fill="#FF7C80"/><rect x="1102.5" y="465.413" width="34" height="34.9934" stroke="#000000" stroke-width="1.33358" stroke-miterlimit="8" fill="#FF7C80"/><rect x="1102.5" y="500.406" width="34" height="35.9933" stroke="#000000" stroke-width="1.33358" stroke-miterlimit="8" fill="#FF7C80"/><rect x="1136.5" y="465.413" width="33" height="34.9934" stroke="#000000" stroke-width="1.33358" stroke-miterlimit="8" fill="#FF7C80"/><rect x="1136.5" y="500.406" width="33" height="35.9933" stroke="#000000" stroke-width="1.33358" stroke-miterlimit="8" fill="#FF7C80"/><text font-family="Calibri,Calibri_MSFontService,sans-serif" font-weight="400" font-size="24" transform="matrix(1 0 0 0.999813 991.215 508)">N<tspan font-size="16" x="15.5029" y="5.00093">Q</tspan></text><path d="M1022.83 472.08 1022.83 529.146 1022.17 529.146 1022.17 472.08ZM1018.5 473.413 1022.5 465.413 1026.5 473.413ZM1026.5 527.813 1022.5 535.813 1018.5 527.813Z"/><path d="M1039.17 556.063 1162.95 556.063 1162.95 556.729 1039.17 556.729ZM1040.5 560.396 1032.5 556.396 1040.5 552.396ZM1161.62 552.396 1169.62 556.396 1161.62 560.396Z"/><text font-family="Calibri,Calibri_MSFontService,sans-serif" font-weight="400" font-size="24" transform="matrix(1 0 0 0.999813 1091.42 579)">N<tspan font-size="16" x="15.5029" y="5.00093">X</tspan><tspan font-family="Consolas,Consolas_MSFontService,sans-serif" font-weight="700" font-size="21" x="3.17651" y="-131.024">E</tspan></text><g clip-path="url(#clip4)"><g clip-path="url(#clip5)"><g clip-path="url(#clip6)"><path d="M33.8775 4.24395C33.8775 3.91111 33.6077 3.64129 33.2748 3.64129L20.4905 3.64129C20.1577 3.64129 19.8879 3.91111 19.8879 4.24395L19.8879 17.0288C19.8879 17.3617 20.1577 17.6315 20.4905 17.6315 20.8234 17.6315 21.0932 17.3617 21.0932 17.0288L21.0932 5.85667C21.0932 5.85335 21.0959 5.85065 21.0992 5.85065 21.1005 5.85065 21.1018 5.85107 21.1028 5.85185 34.2565 15.1835 36.9348 27.4814 36.8504 36.1845 36.8302 42.3012 35.6177 48.3553 33.2808 54.0082 33.1531 54.3154 33.2985 54.668 33.6057 54.7959 33.6789 54.8267 33.7576 54.8425 33.8371 54.8423 34.0804 54.8422 34.2999 54.6958 34.3933 54.4711 36.7903 48.6751 38.0342 42.4673 38.0557 36.1953 38.1431 27.2006 35.3769 14.491 21.7838 4.85686 21.7812 4.85488 21.7806 4.85111 21.7826 4.84843 21.7836 4.84705 21.7852 4.84617 21.7869 4.84601L33.2748 4.84601C33.6074 4.84601 33.8771 4.57655 33.8775 4.24395Z" stroke="#000000" stroke-width="0.181936" fill="#0000FF" transform="matrix(-0.911504 0.411292 -0.413888 -0.916914 1171.28 621.337)"/></g></g></g><text fill="#0000FF" font-family="Consolas,Consolas_MSFontService,sans-serif" font-weight="400" font-size="16" transform="matrix(1 0 0 0.999813 1178.15 620)">The dimension of E is N<tspan font-size="11" x="203.205" y="3.00056">Q</tspan><tspan font-size="16" x="217.874" y="0">x N</tspan><tspan font-size="11" x="244.379" y="3.00056">X</tspan><tspan font-size="16" x="259.048" y="0">i.e</tspan><tspan font-size="16" x="294.388" y="0">for </tspan><tspan font-size="16" x="0" y="19.0036">each query vector what is the weight </tspan><tspan font-size="16" x="0" y="38.0071">assigned to each key</tspan><tspan fill="#000000" font-weight="700" font-size="24" x="-238.075" y="-109.02">=</tspan></text><g clip-path="url(#clip7)"><g clip-path="url(#clip8)"><g clip-path="url(#clip9)"><path d="M48.3795 6.06067C48.3795 5.58536 47.9942 5.20003 47.5189 5.20003L29.262 5.20003C28.7866 5.20003 28.4013 5.58536 28.4013 6.06067L28.4013 24.3184C28.4013 24.7938 28.7866 25.1791 29.262 25.1791 29.7373 25.1791 30.1226 24.7938 30.1226 24.3184L30.1226 8.36376C30.1226 8.35901 30.1265 8.35516 30.1312 8.35516 30.1331 8.35516 30.1349 8.35576 30.1364 8.35688 48.9209 21.6831 52.7456 39.2455 52.6251 51.6741 52.5962 60.4093 50.8646 69.055 47.5275 77.1277 47.3451 77.5665 47.5528 78.0699 47.9914 78.2526 48.0959 78.2966 48.2083 78.3191 48.3219 78.3188 48.6694 78.3188 48.9828 78.1096 49.1162 77.7887 52.5392 69.5116 54.3157 60.6465 54.3464 51.6896 54.4712 38.8444 50.5208 20.6942 31.1089 6.93595 31.1051 6.93313 31.1043 6.92774 31.1071 6.92392 31.1086 6.92195 31.1108 6.92069 31.1132 6.92046L47.5189 6.92046C47.9939 6.92046 48.379 6.53566 48.3795 6.06067Z" stroke="#000000" stroke-width="0.259818" fill="#0000FF" transform="matrix(-0.911504 -0.411292 -0.413887 0.916914 1194.63 429.157)"/></g></g></g><text fill="#0000FF" font-family="Consolas,Consolas_MSFontService,sans-serif" font-weight="400" font-size="16" transform="matrix(1 0 0 0.999813 1178.15 420)">Each element is a <tspan font-size="16" x="0" y="19.0036">scalar (weight) </tspan></text><rect x="423.5" y="717.366" width="34.0001" height="34.9935" stroke="#000000" stroke-width="1.33358" stroke-miterlimit="8" fill="#FF7C80"/><rect x="423.5" y="752.359" width="34.0001" height="35.9932" stroke="#000000" stroke-width="1.33358" stroke-miterlimit="8" fill="#FF7C80"/><rect x="457.5" y="717.366" width="33" height="34.9935" stroke="#000000" stroke-width="1.33358" stroke-miterlimit="8" fill="#FF7C80"/><rect x="457.5" y="752.359" width="33" height="35.9932" stroke="#000000" stroke-width="1.33358" stroke-miterlimit="8" fill="#FF7C80"/><rect x="490.5" y="717.366" width="34.0001" height="34.9935" stroke="#000000" stroke-width="1.33358" stroke-miterlimit="8" fill="#FF7C80"/><rect x="490.5" y="752.359" width="34.0001" height="35.9932" stroke="#000000" stroke-width="1.33358" stroke-miterlimit="8" fill="#FF7C80"/><rect x="524.5" y="717.366" width="33" height="34.9935" stroke="#000000" stroke-width="1.33358" stroke-miterlimit="8" fill="#FF7C80"/><rect x="524.5" y="752.359" width="33" height="35.9932" stroke="#000000" stroke-width="1.33358" stroke-miterlimit="8" fill="#FF7C80"/><text font-family="Calibri,Calibri_MSFontService,sans-serif" font-weight="400" font-size="24" transform="matrix(1 0 0 0.999813 379.567 760)">N<tspan font-size="16" x="15.5029" y="5.00093">Q</tspan></text><path d="M411.833 724.033 411.834 781.099 411.167 781.099 411.167 724.033ZM407.499 725.366 411.5 717.366 415.501 725.366ZM415.501 779.766 411.5 787.766 407.499 779.766Z"/><path d="M427.168 808.016 550.954 808.016 550.954 808.682 427.168 808.682ZM428.502 812.349 420.5 808.349 428.502 804.349ZM549.62 804.349 557.622 808.349 549.62 812.349Z"/><text font-family="Calibri,Calibri_MSFontService,sans-serif" font-weight="400" font-size="24" transform="matrix(1 0 0 0.999813 479.775 831)">N<tspan font-size="16" x="15.5029" y="5.00093">X</tspan><tspan font-family="Consolas,Consolas_MSFontService,sans-serif" font-weight="700" font-size="21" x="3.17651" y="-131.024">E</tspan></text><path d="M612.5 759.025 832.83 759.025 832.83 759.691 612.5 759.691ZM831.496 755.358 839.497 759.358 831.496 763.358Z"/><text font-family="Consolas,Consolas_MSFontService,sans-serif" font-weight="700" font-size="21" transform="matrix(1 0 0 0.999813 661.005 742)">SoftMax<tspan font-size="21" x="-11.4582" y="47.0088">Along X axis</tspan></text><rect x="628.5" y="1046.3" width="34.0001" height="34.9935" stroke="#000000" stroke-width="1.33358" stroke-miterlimit="8" fill="#F4B183"/><rect x="628.5" y="1082.3" width="34.0001" height="34.9935" stroke="#000000" stroke-width="1.33358" stroke-miterlimit="8" fill="#F4B183"/><rect x="662.5" y="1046.3" width="33" height="34.9935" stroke="#000000" stroke-width="1.33358" stroke-miterlimit="8" fill="#F4B183"/><rect x="662.5" y="1082.3" width="33" height="34.9935" stroke="#000000" stroke-width="1.33358" stroke-miterlimit="8" fill="#F4B183"/><rect x="695.5" y="1046.3" width="33.9999" height="34.9935" stroke="#000000" stroke-width="1.33358" stroke-miterlimit="8" fill="#F4B183"/><rect x="695.5" y="1082.3" width="33.9999" height="34.9935" stroke="#000000" stroke-width="1.33358" stroke-miterlimit="8" fill="#F4B183"/><rect x="729.5" y="1046.3" width="34.0001" height="34.9935" stroke="#000000" stroke-width="1.33358" stroke-miterlimit="8" fill="#F4B183"/><rect x="729.5" y="1082.3" width="34.0001" height="34.9935" stroke="#000000" stroke-width="1.33358" stroke-miterlimit="8" fill="#F4B183"/><text font-family="Calibri,Calibri_MSFontService,sans-serif" font-weight="400" font-size="24" transform="matrix(1 0 0 0.999813 584.742 1089)">N<tspan font-size="16" x="15.5029" y="5.00093">Q</tspan></text><path d="M616.833 1052.97 616.834 1110.04 616.167 1110.04 616.167 1052.97ZM612.499 1054.3 616.5 1046.3 620.501 1054.3ZM620.501 1108.7 616.5 1116.7 612.499 1108.7Z"/><path d="M632.168 1136.95 755.954 1136.95 755.954 1137.62 632.168 1137.62ZM633.502 1141.29 625.5 1137.29 633.502 1133.29ZM754.62 1133.29 762.622 1137.29 754.62 1141.29Z"/><text font-family="Calibri,Calibri_MSFontService,sans-serif" font-weight="400" font-size="24" transform="matrix(1 0 0 0.999813 684.949 1160)">N<tspan font-size="16" x="15.5029" y="5.00093">X</tspan><tspan font-family="Consolas,Consolas_MSFontService,sans-serif" font-weight="700" font-size="21" x="3.17651" y="-131.024">A</tspan><tspan fill="#0000FF" font-family="Consolas,Consolas_MSFontService,sans-serif" font-size="16" x="409.877" y="-366.068">Normalized attention weight</tspan></text><g clip-path="url(#clip10)"><g clip-path="url(#clip11)"><g clip-path="url(#clip12)"><path d="M20.9147-19.4486C21.0344-19.5982 21.184-19.8675 21.184-20.077 21.184-20.7651 20.5258-20.7651 20.1069-20.7651L18.6407-20.7651C18.0124-20.7651 17.0849-20.7651 16.277-19.6281L13.3448-15.4392C12.2975-13.9432 11.729-13.1353 11.2204-12.0581 10.7715-12.9857 10.1731-13.8534 9.57469-14.6912L6.19364-19.5384C5.50545-20.5258 4.8472-20.7651 3.77004-20.7651L1.79526-20.7651C1.37636-20.7651 0.718103-20.7651 0.718103-20.077 0.718103-19.8675 0.807867-19.7179 0.987392-19.4785L8.79676-8.31803 8.79676-1.43621C8.79676-0.359051 9.1259 0 10.233 0L11.6692 0C12.7164 0 13.1054-0.29921 13.1054-1.40628L13.1054-8.2881 20.9147-19.4486Z" transform="matrix(1 0 0 1.0426 515.303 975.471)"/><path d="M20.1966-9.78415C20.6155-9.78415 21.1541-9.78415 21.1541-10.3227 21.1541-10.8912 20.6455-10.8912 20.1966-10.8912L2.57319-10.8912C2.15431-10.8912 1.61573-10.8912 1.61573-10.3527 1.61573-9.78415 2.12439-9.78415 2.57319-9.78415L20.1966-9.78415ZM20.1966-4.03933C20.6155-4.03933 21.1541-4.03933 21.1541-4.5779 21.1541-5.1464 20.6455-5.1464 20.1966-5.1464L2.57319-5.1464C2.15431-5.1464 1.61573-5.1464 1.61573-4.60784 1.61573-4.03933 2.12439-4.03933 2.57319-4.03933L20.1966-4.03933Z" transform="matrix(1 0 0 1.0426 546.379 975.471)"/><path d="M14.1825-19.4785C13.7337-20.7651 12.866-20.7651 12.2676-20.7651L9.63453-20.7651C9.03612-20.7651 8.16842-20.7651 7.71959-19.4785L1.40628-1.40628C1.25668-1.01731 1.25668-0.957469 1.25668-0.807867 1.25668 0 2.0047 0 2.4236 0L3.50074 0C4.03933 0 4.96688 0 5.38577-1.19684L6.55268-4.51806 14.8408-4.51806 15.8581-1.64565C16.2171-0.598418 16.4266 0 17.8628 0L19.4785 0C19.8974 0 20.6455 0 20.6455-0.807867 20.6455-0.957469 20.6455-1.01731 20.4958-1.40628L14.1825-19.4785ZM9.60463-13.4345C10.0534-14.751 10.4424-15.888 10.6818-16.9652L10.7117-16.9652C10.8613-16.2471 10.8613-16.1872 11.1007-15.4991L13.9432-7.09125 7.45032-7.09125 9.60463-13.4345Z" transform="matrix(1 0 0 1.0426 577.477 975.471)"/><path d="M15.8979-13.8434 14.2224-13.8434 11.5894-1.57583 11.5694-1.57583 7.65974-13.8434 4.94691-13.8434 1.99472 0 3.67028 0 6.28339-12.2675 6.30334-12.2675 10.2329 0 12.9458 0 15.8979-13.8434Z" transform="matrix(1 0 0 1.0426 599.42 980.151)"/><path d="M8.22826 1.91494 9.99361 1.91494 8.60227-0.493695C10.966-1.97478 12.0731-4.35351 12.0731-6.41803 12.0731-9.081 10.3078-10.6967 8.13851-10.6967 4.90704-10.6967 1.84014-7.31567 1.84014-3.90468 1.84014-1.42124 3.50074 0.314169 5.80466 0.314169 6.31332 0.314169 6.80701 0.239367 7.28574 0.0897641L8.22826 1.91494ZM7.21096-2.90233 5.74482-2.90233 6.82198-0.822826C6.55268-0.748023 6.28341-0.718103 6.01411-0.718103 4.54799-0.718103 3.30627-1.84014 3.30627-3.91965 3.30627-6.80701 5.50545-9.66447 7.91408-9.66447 9.54478-9.66447 10.6219-8.31803 10.6219-6.41803 10.6219-5.04169 10.0085-2.70784 8.07867-1.40628L7.21096-2.90233Z" transform="matrix(1 0 0 1.0426 614.38 983.819)"/><path d="M13.0655-9.17575C13.3048-9.41512 13.3448-9.51485 13.3448-9.65448 13.3448-9.89387 13.1453-10.1133 12.8859-10.1133 12.7064-10.1133 12.6266-10.0335 12.4072-9.81406L8.23824-5.64508 4.04929-9.83403C3.80993-10.0734 3.7102-10.1133 3.57057-10.1133 3.3312-10.1133 3.11178-9.91382 3.11178-9.65448 3.11178-9.47496 3.19157-9.39517 3.39104-9.1957L7.57997-4.98683 3.41099-0.81784C3.15168-0.558524 3.11178-0.458789 3.11178-0.319157 3.11178-0.059841 3.3312 0.139632 3.57057 0.139632 3.75009 0.139632 3.80993 0.0797881 4.02935-0.139632L8.2183-4.32855 12.5668 0.019947C12.6665 0.0797881 12.7862 0.139632 12.8859 0.139632 13.1453 0.139632 13.3448-0.0797881 13.3448-0.319157 13.3448-0.478736 13.245-0.558524 13.245-0.578471 13.1652-0.698156 9.97366-3.86977 8.87655-4.98683L13.0655-9.17575Z" transform="matrix(1 0 0 1.0426 628.47 980.151)"/><path d="M15.8979-13.8434 14.2224-13.8434 11.5894-1.57583 11.5694-1.57583 7.65974-13.8434 4.94691-13.8434 1.99472 0 3.67028 0 6.28339-12.2675 6.30334-12.2675 10.2329 0 12.9458 0 15.8979-13.8434Z" transform="matrix(1 0 0 1.0426 644.956 980.151)"/><path d="M7.07631-5.47554 11.8936-10.3826 10.2629-10.3826 6.56765-6.55268 4.42829-10.3826 2.648-10.3826 5.61017-5.47554 0.224408 0 1.8551 0 6.13379-4.5031 8.57236 0 10.3527 0 7.07631-5.47554Z" transform="matrix(1 0 0 1.0426 659.917 983.819)"/><path d="M5.74482-7.48023C5.74482-8.34794 5.02672-9.06606 4.15902-9.06606 3.29131-9.06606 2.57319-8.34794 2.57319-7.48023 2.57319-6.61252 3.29131-5.89443 4.15902-5.89443 5.02672-5.89443 5.74482-6.61252 5.74482-7.48023Z" transform="matrix(1 0 0 1.0426 681.644 975.471)"/><path d="M20.9447-19.4187C21.0643-19.7778 21.0943-19.8077 21.0943-19.9573 21.0943-20.7651 20.3462-20.7651 19.9273-20.7651L18.7604-20.7651C18.1321-20.7651 17.2644-20.7651 16.7857-19.4486L12.7463-8.34794 11.1904-3.74013C11.1605-3.82988 10.8314-4.87711 10.3826-6.10386L5.53538-19.4785C5.05663-20.7651 4.21886-20.7651 3.59051-20.7651L1.97478-20.7651C1.55589-20.7651 0.807867-20.7651 0.807867-19.9573 0.807867-19.8077 0.837787-19.7778 0.957469-19.4187L7.65975-1.25668C8.10857 0 8.97628 0 9.57469 0L12.3274 0C12.9558 0 13.7935 0 14.2723-1.31652L20.9447-19.4187Z" transform="matrix(1 0 0 1.0426 696.603 975.471)"/><path d="M15.8979-13.8434 14.2224-13.8434 11.5894-1.57583 11.5694-1.57583 7.65974-13.8434 4.94691-13.8434 1.99472 0 3.67028 0 6.28339-12.2675 6.30334-12.2675 10.2329 0 12.9458 0 15.8979-13.8434Z" transform="matrix(1 0 0 1.0426 718.547 980.151)"/><path d="M7.07631-5.47554 11.8936-10.3826 10.2629-10.3826 6.56765-6.55268 4.42829-10.3826 2.648-10.3826 5.61017-5.47554 0.224408 0 1.8551 0 6.13379-4.5031 8.57236 0 10.3527 0 7.07631-5.47554Z" transform="matrix(1 0 0 1.0426 733.506 983.819)"/><path d="M13.0655-9.17575C13.3048-9.41512 13.3448-9.51485 13.3448-9.65448 13.3448-9.89387 13.1453-10.1133 12.8859-10.1133 12.7064-10.1133 12.6266-10.0335 12.4072-9.81406L8.23824-5.64508 4.04929-9.83403C3.80993-10.0734 3.7102-10.1133 3.57057-10.1133 3.3312-10.1133 3.11178-9.91382 3.11178-9.65448 3.11178-9.47496 3.19157-9.39517 3.39104-9.1957L7.57997-4.98683 3.41099-0.81784C3.15168-0.558524 3.11178-0.458789 3.11178-0.319157 3.11178-0.059841 3.3312 0.139632 3.57057 0.139632 3.75009 0.139632 3.80993 0.0797881 4.02935-0.139632L8.2183-4.32855 12.5668 0.019947C12.6665 0.0797881 12.7862 0.139632 12.8859 0.139632 13.1453 0.139632 13.3448-0.0797881 13.3448-0.319157 13.3448-0.478736 13.245-0.558524 13.245-0.578471 13.1652-0.698156 9.97366-3.86977 8.87655-4.98683L13.0655-9.17575Z" transform="matrix(1 0 0 1.0426 747.339 980.151)"/><path d="M4.90704-13.8434 1.95483 0 7.61986 0C11.6891 0 15.7184-3.90967 15.7184-8.39778 15.7184-11.5694 13.604-13.8434 10.5521-13.8434L4.90704-13.8434ZM6.60254-12.6665 9.77416-12.6665C12.1678-12.6665 13.7835-11.0308 13.7835-8.39778 13.7835-4.66764 11.0109-1.17689 7.34058-1.17689L4.16899-1.17689 6.60254-12.6665Z" transform="matrix(1 0 0 1.0426 763.822 980.151)"/><path d="M12.5668-10.3826 11.2652-10.3826 8.27313-5.59523 6.61252-2.84249C5.80466-1.49605 5.71491-1.27164 5.68497-1.18188L5.67001-1.18188C5.67001-1.97478 5.23615-4.18892 4.95192-5.61017L4.0094-10.3826 2.4236-10.3826 4.53303 0 6.04402 0 12.5668-10.3826Z" transform="matrix(1 0 0 1.0426 779.129 983.819)"/></g></g></g><text font-family="Consolas,Consolas_MSFontService,sans-serif" font-weight="700" font-size="24" transform="matrix(1 0 0 0.999813 520.77 1092)">Y =</text><rect x="917.5" y="734.363" width="33.9999" height="34.9934" stroke="#000000" stroke-width="1.33358" stroke-miterlimit="8" fill="#F4B183"/><rect x="917.5" y="769.356" width="33.9999" height="35.9933" stroke="#000000" stroke-width="1.33358" stroke-miterlimit="8" fill="#F4B183"/><rect x="951.5" y="734.363" width="33" height="34.9934" stroke="#000000" stroke-width="1.33358" stroke-miterlimit="8" fill="#F4B183"/><rect x="951.5" y="769.356" width="33" height="35.9933" stroke="#000000" stroke-width="1.33358" stroke-miterlimit="8" fill="#F4B183"/><rect x="984.5" y="734.363" width="34.0001" height="34.9934" stroke="#000000" stroke-width="1.33358" stroke-miterlimit="8" fill="#F4B183"/><rect x="984.5" y="769.356" width="34.0001" height="35.9933" stroke="#000000" stroke-width="1.33358" stroke-miterlimit="8" fill="#F4B183"/><rect x="1018.5" y="734.363" width="34" height="34.9934" stroke="#000000" stroke-width="1.33358" stroke-miterlimit="8" fill="#F4B183"/><rect x="1018.5" y="769.356" width="34" height="35.9933" stroke="#000000" stroke-width="1.33358" stroke-miterlimit="8" fill="#F4B183"/><text font-family="Calibri,Calibri_MSFontService,sans-serif" font-weight="400" font-size="24" transform="matrix(1 0 0 0.999813 873.696 777)">N<tspan font-size="16" x="15.5029" y="5.00093">Q</tspan></text><path d="M905.833 741.029 905.833 798.096 905.167 798.096 905.167 741.029ZM901.499 742.363 905.5 734.363 909.501 742.363ZM909.501 796.763 905.5 804.763 901.499 796.763Z"/><path d="M921.168 825.012 1044.95 825.012 1044.95 825.679 921.168 825.679ZM922.501 829.346 914.5 825.346 922.502 821.346ZM1043.62 821.346 1051.62 825.346 1043.62 829.346Z"/><text font-family="Calibri,Calibri_MSFontService,sans-serif" font-weight="400" font-size="24" transform="matrix(1 0 0 0.999813 973.904 848)">N<tspan font-size="16" x="15.5029" y="5.00093">X</tspan><tspan font-family="Consolas,Consolas_MSFontService,sans-serif" font-weight="700" font-size="21" x="3.17651" y="-131.024">A</tspan><tspan font-family="Consolas,Consolas_MSFontService,sans-serif" font-weight="700" font-size="32" x="-186.47" y="238.044">.</tspan></text><rect x="855.5" y="1043.3" width="34.0001" height="35.9933" stroke="#000000" stroke-width="1.33358" stroke-miterlimit="8" fill="#8FAADC"/><rect x="888.5" y="1043.3" width="34.0001" height="35.9933" stroke="#000000" stroke-width="1.33358" stroke-miterlimit="8" fill="#8FAADC"/><rect x="921.5" y="1043.3" width="33.9999" height="35.9933" stroke="#000000" stroke-width="1.33358" stroke-miterlimit="8" fill="#8FAADC"/><rect x="855.5" y="1079.3" width="33" height="34.9935" stroke="#000000" stroke-width="1.33358" stroke-miterlimit="8" fill="#8FAADC"/><rect x="888.5" y="1079.3" width="34.0001" height="34.9935" stroke="#000000" stroke-width="1.33358" stroke-miterlimit="8" fill="#8FAADC"/><rect x="921.5" y="1079.3" width="33.9999" height="34.9935" stroke="#000000" stroke-width="1.33358" stroke-miterlimit="8" fill="#8FAADC"/><rect x="855.5" y="1114.29" width="33" height="34.9935" stroke="#000000" stroke-width="1.33358" stroke-miterlimit="8" fill="#8FAADC"/><rect x="888.5" y="1114.29" width="34.0001" height="34.9935" stroke="#000000" stroke-width="1.33358" stroke-miterlimit="8" fill="#8FAADC"/><rect x="921.5" y="1114.29" width="33.9999" height="34.9935" stroke="#000000" stroke-width="1.33358" stroke-miterlimit="8" fill="#8FAADC"/><rect x="855.5" y="1008.31" width="34.0001" height="34.9934" stroke="#000000" stroke-width="1.33358" stroke-miterlimit="8" fill="#8FAADC"/><rect x="888.5" y="1008.31" width="34.0001" height="34.9934" stroke="#000000" stroke-width="1.33358" stroke-miterlimit="8" fill="#8FAADC"/><rect x="921.5" y="1008.31" width="33.9999" height="34.9934" stroke="#000000" stroke-width="1.33358" stroke-miterlimit="8" fill="#8FAADC"/><text font-family="Consolas,Consolas_MSFontService,sans-serif" font-weight="700" font-size="21" transform="matrix(1 0 0 0.999813 915.193 994)">V</text><path d="M843.891 1014.98 845.031 1147.97 844.365 1147.98 843.224 1014.98ZM839.568 1016.35 843.5 1008.31 847.569 1016.28ZM848.687 1146.61 844.755 1154.64 840.686 1146.68Z"/><text font-family="Calibri,Calibri_MSFontService,sans-serif" font-weight="400" font-size="24" transform="matrix(1 0 0 0.999813 810.153 1088)">N<tspan font-size="16" x="15.5029" y="5.00093">X</tspan></text><path d="M857.168 1168.95 979.892 1168.95 979.892 1169.61 857.168 1169.61ZM858.501 1173.28 850.5 1169.28 858.502 1165.28ZM978.558 1165.28 986.56 1169.28 978.558 1173.28Z"/><text font-family="Calibri,Calibri_MSFontService,sans-serif" font-weight="400" font-size="24" transform="matrix(1 0 0 0.999813 911.892 1195)">D<tspan font-size="16" x="14.5561" y="5.00093">V</tspan></text><rect x="953.5" y="1043.3" width="33" height="35.9933" stroke="#000000" stroke-width="1.33358" stroke-miterlimit="8" fill="#8FAADC"/><rect x="953.5" y="1114.29" width="33" height="34.9935" stroke="#000000" stroke-width="1.33358" stroke-miterlimit="8" fill="#8FAADC"/><rect x="953.5" y="1008.31" width="33" height="34.9934" stroke="#000000" stroke-width="1.33358" stroke-miterlimit="8" fill="#8FAADC"/><rect x="953.5" y="1079.3" width="33" height="34.9935" stroke="#000000" stroke-width="1.33358" stroke-miterlimit="8" fill="#8FAADC"/><text font-family="Consolas,Consolas_MSFontService,sans-serif" font-weight="700" font-size="24" transform="matrix(1 0 0 0.999813 1021.3 1101)">=</text><rect x="1118.5" y="1053.3" width="34" height="34.9934" stroke="#000000" stroke-width="1.33358" stroke-miterlimit="8" fill="#FFD966"/><rect x="1152.5" y="1053.3" width="33" height="34.9934" stroke="#000000" stroke-width="1.33358" stroke-miterlimit="8" fill="#FFD966"/><rect x="1185.5" y="1053.3" width="34" height="34.9934" stroke="#000000" stroke-width="1.33358" stroke-miterlimit="8" fill="#FFD966"/><rect x="1219.5" y="1053.3" width="33" height="34.9934" stroke="#000000" stroke-width="1.33358" stroke-miterlimit="8" fill="#FFD966"/><rect x="1118.5" y="1088.3" width="34" height="34.9935" stroke="#000000" stroke-width="1.33358" stroke-miterlimit="8" fill="#FFD966"/><rect x="1152.5" y="1088.3" width="33" height="34.9935" stroke="#000000" stroke-width="1.33358" stroke-miterlimit="8" fill="#FFD966"/><rect x="1185.5" y="1088.3" width="34" height="34.9935" stroke="#000000" stroke-width="1.33358" stroke-miterlimit="8" fill="#FFD966"/><rect x="1219.5" y="1088.3" width="33" height="34.9935" stroke="#000000" stroke-width="1.33358" stroke-miterlimit="8" fill="#FFD966"/><text font-family="Calibri,Calibri_MSFontService,sans-serif" font-weight="400" font-size="24" transform="matrix(1 0 0 0.999813 1069.4 1096)">N<tspan font-size="16" x="15.5029" y="5.00093">Q</tspan></text><path d="M1106.83 1060.97 1106.83 1118.04 1106.17 1118.04 1106.17 1060.97ZM1102.5 1062.3 1106.5 1054.3 1110.5 1062.3ZM1110.5 1116.7 1106.5 1124.7 1102.5 1116.7Z"/><path d="M1123.17 1139.95 1245.89 1139.95 1245.89 1140.62 1123.17 1140.62ZM1124.5 1144.29 1116.5 1140.29 1124.5 1136.29ZM1244.56 1136.29 1252.56 1140.29 1244.56 1144.29Z"/><text font-family="Calibri,Calibri_MSFontService,sans-serif" font-weight="400" font-size="24" transform="matrix(1 0 0 0.999813 1177.22 1166)">D<tspan font-size="16" x="14.556" y="5.00093">V</tspan><tspan font-family="Consolas,Consolas_MSFontService,sans-serif" font-weight="700" font-size="21" x="2.0625" y="-127.024">Y</tspan></text><g clip-path="url(#clip13)"><g clip-path="url(#clip14)"><g clip-path="url(#clip15)"><path d="M33.8775 4.24395C33.8775 3.91111 33.6077 3.64129 33.2748 3.64129L20.4905 3.64129C20.1577 3.64129 19.8879 3.91111 19.8879 4.24395L19.8879 17.0288C19.8879 17.3617 20.1577 17.6315 20.4905 17.6315 20.8234 17.6315 21.0932 17.3617 21.0932 17.0288L21.0932 5.85667C21.0932 5.85335 21.0959 5.85065 21.0992 5.85065 21.1005 5.85065 21.1018 5.85107 21.1028 5.85185 34.2565 15.1835 36.9348 27.4814 36.8504 36.1845 36.8302 42.3012 35.6177 48.3553 33.2808 54.0082 33.1531 54.3154 33.2985 54.668 33.6057 54.7959 33.6789 54.8267 33.7576 54.8425 33.8371 54.8423 34.0804 54.8422 34.2999 54.6958 34.3933 54.4711 36.7903 48.6751 38.0342 42.4673 38.0557 36.1953 38.1431 27.2006 35.3769 14.491 21.7838 4.85686 21.7812 4.85488 21.7806 4.85111 21.7826 4.84843 21.7836 4.84705 21.7852 4.84617 21.7869 4.84601L33.2748 4.84601C33.6074 4.84601 33.8771 4.57655 33.8775 4.24395Z" stroke="#000000" stroke-width="0.181936" fill="#0000FF" transform="matrix(-0.911504 0.411292 -0.413888 -0.916914 1095.12 787.245)"/></g></g></g><g clip-path="url(#clip16)"><g clip-path="url(#clip17)"><g clip-path="url(#clip18)"><path d="M33.8775 4.24395C33.8775 3.91111 33.6077 3.64129 33.2748 3.64129L20.4905 3.64129C20.1577 3.64129 19.8879 3.91111 19.8879 4.24395L19.8879 17.0288C19.8879 17.3617 20.1577 17.6315 20.4905 17.6315 20.8234 17.6315 21.0932 17.3617 21.0932 17.0288L21.0932 5.85667C21.0932 5.85335 21.0959 5.85065 21.0992 5.85065 21.1005 5.85065 21.1018 5.85107 21.1028 5.85185 34.2565 15.1835 36.9348 27.4814 36.8504 36.1845 36.8302 42.3012 35.6177 48.3553 33.2808 54.0082 33.1531 54.3154 33.2985 54.668 33.6057 54.7959 33.6789 54.8267 33.7576 54.8425 33.8371 54.8423 34.0804 54.8422 34.2999 54.6958 34.3933 54.4711 36.7903 48.6751 38.0342 42.4673 38.0557 36.1953 38.1431 27.2006 35.3769 14.491 21.7838 4.85686 21.7812 4.85488 21.7806 4.85111 21.7826 4.84843 21.7836 4.84705 21.7852 4.84617 21.7869 4.84601L33.2748 4.84601C33.6074 4.84601 33.8771 4.57655 33.8775 4.24395Z" stroke="#000000" stroke-width="0.181936" fill="#0000FF" transform="matrix(-0.911504 0.411292 -0.413888 -0.916914 1279.56 1179.08)"/></g></g></g><text fill="#0000FF" font-family="Consolas,Consolas_MSFontService,sans-serif" font-weight="400" font-size="16" transform="matrix(1 0 0 0.999813 1286.43 1178)">The dimension of Y is N<tspan font-size="11" x="203.205" y="3.00056">Q</tspan><tspan font-size="16" x="217.874" y="0">x D</tspan><tspan font-size="11" x="244.379" y="3.00056">V</tspan><tspan font-size="16" x="0" y="19.0036">Num of rows = no of queries</tspan><tspan font-size="16" x="0" y="38.0071">No of cols/dimensions is as we specify </tspan><tspan font-size="16" x="0" y="58.0108">in the W</tspan><tspan font-size="11" x="70.6799" y="61.0114">V</tspan><tspan font-size="16" x="85.3494" y="58.0108">matrix</tspan></text><rect x="156.5" y="337.437" width="199" height="76.9855" stroke="#000000" stroke-width="1.00019" stroke-linejoin="round" stroke-miterlimit="10" fill="none"/><text font-family="Consolas,Consolas_MSFontService,sans-serif" font-weight="400" font-size="19" transform="matrix(1 0 0 0.999813 165.125 360)">Step 2: Computing <tspan font-size="19" x="0" y="22.0041">the raw attention </tspan><tspan font-size="19" x="0" y="44.0082">weights</tspan></text><rect x="152.5" y="730.363" width="199" height="76.9856" stroke="#000000" stroke-width="1.00019" stroke-linejoin="round" stroke-miterlimit="10" fill="none"/><text font-family="Consolas,Consolas_MSFontService,sans-serif" font-weight="400" font-size="19" transform="matrix(1 0 0 0.999813 161.697 752)">Step 3: <tspan font-size="19" x="0" y="22.0041">Normalizing the </tspan><tspan font-size="19" x="0" y="44.0082">attention weights</tspan></text><rect x="156.5" y="999.313" width="199" height="77.9854" stroke="#000000" stroke-width="1.00019" stroke-linejoin="round" stroke-miterlimit="10" fill="none"/><text font-family="Consolas,Consolas_MSFontService,sans-serif" font-weight="400" font-size="19" transform="matrix(1 0 0 0.999813 165.125 1021)">Step 4: <tspan font-size="19" x="0" y="22.0041">Calculating the </tspan><tspan font-size="19" x="0" y="44.0082">output matrix</tspan></text><rect x="155.5" y="126.476" width="209" height="76.9856" stroke="#000000" stroke-width="1.00019" stroke-linejoin="round" stroke-miterlimit="10" fill="none"/><text font-family="Consolas,Consolas_MSFontService,sans-serif" font-weight="400" font-size="19" transform="matrix(1 0 0 0.999813 164.503 149)">Step 1: Q, K, V <tspan font-size="19" x="0" y="22.0041">matrices as </tspan><tspan font-size="19" x="0" y="44.0082">computed before</tspan></text></g></svg>