<svg width="1512" height="1337" xmlns="http://www.w3.org/2000/svg" xmlns:xlink="http://www.w3.org/1999/xlink" overflow="hidden"><defs><clipPath id="clip0"><rect x="0" y="0" width="1512" height="1337"/></clipPath></defs><g clip-path="url(#clip0)"><rect x="0" y="0" width="1512" height="1336.85" fill="#FFFFFF"/><rect x="340.5" y="529.442" width="41" height="205.977" stroke="#2F528F" stroke-width="0.33337" stroke-miterlimit="8" fill="#F4B183"/><rect x="408.5" y="529.442" width="41" height="205.977" stroke="#2F528F" stroke-width="0.33337" stroke-miterlimit="8" fill="#F4B183"/><rect x="508.5" y="529.442" width="41" height="204.977" stroke="#2F528F" stroke-width="0.33337" stroke-miterlimit="8" fill="#F4B183"/><text font-family="Calibri,Calibri_MSFontService,sans-serif" font-weight="400" font-size="32" transform="matrix(1 0 0 0.99989 469.036 642)">…</text><path d="M360.5 734.84 360.5 762.181 528.764 762.181 528.764 734.419" stroke="#000000" stroke-miterlimit="8" fill="none" fill-rule="evenodd"/><text font-family="Calibri,Calibri_MSFontService,sans-serif" font-weight="400" font-size="19" transform="matrix(1 0 0 0.99989 368.1 795)">Stack of encoder NNs</text><rect x="194.5" y="559.438" width="22" height="18.9979" stroke="#2F528F" stroke-width="0.33337" stroke-miterlimit="8" fill="#E2F0D9"/><rect x="216.5" y="559.438" width="22" height="18.9979" stroke="#2F528F" stroke-width="0.33337" stroke-miterlimit="8" fill="#E2F0D9"/><rect x="238.5" y="559.438" width="22" height="18.9979" stroke="#2F528F" stroke-width="0.33337" stroke-miterlimit="8" fill="#E2F0D9"/><rect x="194.5" y="602.434" width="22" height="19.9978" stroke="#2F528F" stroke-width="0.33337" stroke-miterlimit="8" fill="#E2F0D9"/><rect x="216.5" y="602.434" width="22" height="19.9978" stroke="#2F528F" stroke-width="0.33337" stroke-miterlimit="8" fill="#E2F0D9"/><rect x="238.5" y="602.434" width="22" height="19.9978" stroke="#2F528F" stroke-width="0.33337" stroke-miterlimit="8" fill="#E2F0D9"/><rect x="194.5" y="663.427" width="22" height="19.9978" stroke="#2F528F" stroke-width="0.33337" stroke-miterlimit="8" fill="#E2F0D9"/><rect x="216.5" y="663.427" width="22" height="19.9978" stroke="#2F528F" stroke-width="0.33337" stroke-miterlimit="8" fill="#E2F0D9"/><rect x="238.5" y="663.427" width="22" height="19.9978" stroke="#2F528F" stroke-width="0.33337" stroke-miterlimit="8" fill="#E2F0D9"/><text font-family="Calibri,Calibri_MSFontService,sans-serif" font-weight="400" font-size="32" transform="matrix(6.12323e-17 0.99978 -1.00011 6.12256e-17 226.136 632)">…</text><text font-family="Calibri,Calibri_MSFontService,sans-serif" font-weight="400" font-size="16" transform="matrix(1 0 0 0.99989 147.068 716)">Sequence of i/p features</text><rect x="629.5" y="503.445" width="41" height="36.9959" stroke="#2F528F" stroke-width="0.33337" stroke-miterlimit="8" fill="#D0CECE"/><rect x="629.5" y="540.44" width="41" height="36.9959" stroke="#2F528F" stroke-width="0.33337" stroke-miterlimit="8" fill="#D0CECE"/><rect x="629.5" y="578.436" width="41" height="36.9959" stroke="#2F528F" stroke-width="0.33337" stroke-miterlimit="8" fill="#D0CECE"/><rect x="629.5" y="615.432" width="41" height="37.9958" stroke="#2F528F" stroke-width="0.33337" stroke-miterlimit="8" fill="#D0CECE"/><rect x="629.5" y="652.428" width="41" height="36.996" stroke="#2F528F" stroke-width="0.33337" stroke-miterlimit="8" fill="#D0CECE"/><rect x="629.5" y="690.424" width="41" height="36.9959" stroke="#2F528F" stroke-width="0.33337" stroke-miterlimit="8" fill="#D0CECE"/><rect x="629.5" y="724.42" width="41" height="36.9959" stroke="#2F528F" stroke-width="0.33337" stroke-miterlimit="8" fill="#D0CECE"/><text font-family="Calibri,Calibri_MSFontService,sans-serif" font-weight="400" font-size="19" transform="matrix(1 0 0 0.99989 601.305 795)">Hidden state</text><rect x="729.5" y="529.442" width="41" height="205.977" stroke="#2F528F" stroke-width="0.33337" stroke-miterlimit="8" fill="#B4C7E7"/><rect x="797.5" y="529.442" width="41" height="204.977" stroke="#2F528F" stroke-width="0.33337" stroke-miterlimit="8" fill="#B4C7E7"/><rect x="897.5" y="528.442" width="42" height="205.977" stroke="#2F528F" stroke-width="0.33337" stroke-miterlimit="8" fill="#B4C7E7"/><text font-family="Calibri,Calibri_MSFontService,sans-serif" font-weight="400" font-size="32" transform="matrix(1 0 0 0.99989 858.568 642)">…</text><path d="M750.5 735.26 750.5 759.237 918.764 759.237 918.764 734.419" stroke="#000000" stroke-miterlimit="8" fill="none" fill-rule="evenodd"/><text font-family="Calibri,Calibri_MSFontService,sans-serif" font-weight="400" font-size="19" transform="matrix(1 0 0 0.99989 751.509 790)">Stack of decoder NNs</text><path d="M261.5 638.763 324.302 638.763 324.302 640.096 261.5 640.096ZM322.969 635.43 330.97 639.43 322.969 643.43Z"/><path d="M555.5 638.763 618.311 638.763 618.311 640.096 555.5 640.096ZM616.977 635.43 624.978 639.43 616.977 643.43Z"/><rect x="1004.5" y="568.437" width="57" height="18.9979" stroke="#2F528F" stroke-width="0.33337" stroke-miterlimit="8" fill="#44546A"/><rect x="1004.5" y="602.434" width="57" height="18.9979" stroke="#2F528F" stroke-width="0.33337" stroke-miterlimit="8" fill="#44546A"/><rect x="1004.5" y="663.427" width="57" height="18.9979" stroke="#2F528F" stroke-width="0.33337" stroke-miterlimit="8" fill="#44546A"/><text font-family="Calibri,Calibri_MSFontService,sans-serif" font-weight="400" font-size="32" transform="matrix(6.12323e-17 0.99978 -1.00011 6.12256e-17 1030.81 632)">…</text><text font-family="Calibri,Calibri_MSFontService,sans-serif" font-weight="400" font-size="16" transform="matrix(1 0 0 0.99989 974.039 716)">Sequence of o/p tokens<tspan font-size="24" x="-500.961" y="-328.036">Simplified encoder</tspan><tspan font-size="24" x="-318.307" y="-328.036">-</tspan><tspan font-size="24" x="-310.973" y="-328.036">decoder architecture</tspan></text><path d="M949.5 638.763 982.654 638.763 982.654 640.096 949.5 640.096ZM981.321 635.43 989.322 639.43 981.321 643.43Z"/><path d="M0 0.333333-23.9999 0.333333-23.6666 0-23.6666 168.246-23.9999 167.912 19.3419 167.912 19.3419 168.579-24.3333 168.579-24.3333-0.333333 0-0.333333ZM18.0086 164.246 26.0086 168.246 18.0086 172.246Z" transform="matrix(1.83717e-16 1 1.00011 -1.83697e-16 650.5 503.445)"/><path d="M738.5 479.114 918.456 479.114 918.456 522.017 917.789 522.017 917.789 479.447 918.122 479.78 738.5 479.78ZM922.123 520.684 918.122 528.684 914.122 520.684Z"/><path d="M750.833 478.447 750.834 523.097 750.167 523.097 750.167 478.447ZM754.501 521.764 750.501 529.764 746.5 521.764Z"/></g></svg>